<svg width="100" height="100" viewBox="0 0 100 100" fill="none" xmlns="http://www.w3.org/2000/svg">
<g clip-path="url(#clip0_4309_30)">
<path d="M46.9341 47.4942H39.1242L37.931 52.8635H44.1681L43.6257 55.521H37.3345L35.382 64.5783H31.6398L35.9786 44.8367H47.8018L46.9341 47.4942Z" fill="#0070BA"/>
<path d="M62.8792 64.5783L65.3198 49.0128L56.9675 64.5783H53.8219L51.9779 52.6466C51.761 51.4534 51.5983 50.2602 51.544 49.0128L47.3137 64.6325H43.6799L49.3746 44.8909H54.2558L55.9913 56.0634C56.2083 57.4735 56.2625 58.0701 56.3167 59.3717L64.0181 44.9452H69.4959L66.6756 64.6868H63.0961" fill="#0070BA"/>
<path d="M15.0438 64.5783C15.532 60.5107 17.9183 54.7075 22.7995 49.6094C22.7995 49.6094 24.4265 52.9177 26.162 56.443H19.3284C18.8945 57.2023 18.5149 58.0158 18.1895 58.7751H27.301C28.7653 61.8123 30.0127 64.4698 30.1212 64.5783H33.6465C33.2668 63.8732 23.9384 45.596 23.7215 45.1621C16.3455 50.7483 11.9524 60.348 11.5186 64.5783H15.0438Z" fill="#0070BA"/>
<path d="M84.8987 64.5783C84.4106 60.5107 82.0242 54.7075 77.1431 49.6094C77.1431 49.6094 75.516 52.9177 73.7805 56.443H80.6141C81.048 57.2023 81.4276 58.0158 81.753 58.7751H72.6415C71.1772 61.8123 69.9298 64.4698 69.8213 64.5783H66.296C66.6757 63.8732 76.0041 45.596 76.2211 45.1621C83.597 50.7483 87.9901 60.348 88.424 64.5783H84.8987Z" fill="#0070BA"/>
<path d="M13.5795 29.3796C12.8202 29.3254 12.1694 29.8678 12.1694 30.6813C12.1694 31.3863 12.8202 31.9287 13.471 31.9287C13.9049 31.9287 14.3388 31.8202 14.6642 31.5491V31.0067H13.6879V30.6271H15.0981V31.7118C14.6642 32.0914 14.1761 32.2541 13.5252 32.2541C12.6032 32.2541 11.7355 31.6575 11.7355 30.6271C11.7355 29.6508 12.6032 29 13.5252 29C14.3388 29 14.9896 29.4881 14.9896 29.4881L14.8269 29.8135C14.4472 29.5966 14.1761 29.3796 13.5795 29.3796Z" fill="#7C8184"/>
<path d="M16.6166 30.4644H18.1352C18.4064 30.4644 18.6776 30.3559 18.6776 29.922C18.6776 29.6508 18.4606 29.4339 18.081 29.4339H16.6709V30.4644H16.6166ZM18.6233 32.1999L17.8098 30.844H16.6166V32.1999H16.1827V29.0543H18.0267C18.6776 29.0543 19.0572 29.3797 19.0572 29.922C19.0572 30.4644 18.7318 30.7898 18.2437 30.7898L19.1114 32.1999H18.6233Z" fill="#7C8184"/>
<path d="M21.552 31.8745C22.257 31.8745 22.9078 31.4406 22.9078 30.6271C22.9078 29.8135 22.3113 29.3796 21.552 29.3796C20.8469 29.3796 20.1961 29.8135 20.1961 30.6271C20.2503 31.4406 20.8469 31.8745 21.552 31.8745ZM21.552 29C22.474 29 23.3417 29.5966 23.3417 30.6271C23.3417 31.6575 22.5282 32.2541 21.552 32.2541C20.63 32.2541 19.7622 31.6575 19.7622 30.6271C19.8164 29.5966 20.63 29 21.552 29Z" fill="#7C8184"/>
<path d="M27.1924 29.0543V31.1694C27.1924 31.766 26.8128 32.2541 25.6739 32.2541C24.5349 32.2541 24.1553 31.766 24.1553 31.1152V29.0543H24.6434V31.1694C24.6434 31.6575 24.8061 31.9287 25.7281 31.9287C26.5959 31.9287 26.7586 31.6575 26.7586 31.1694V29.0543H27.1924Z" fill="#7C8184"/>
<path d="M28.7653 30.4101H30.1754C30.6093 30.4101 30.7178 30.1932 30.7178 29.8678C30.7178 29.5424 30.5008 29.3797 30.1754 29.3797H28.7653V30.4101ZM30.1754 29.0543C30.772 29.0543 31.1516 29.4339 31.1516 29.922C31.1516 30.4644 30.772 30.7898 30.1754 30.7898H28.7653V32.1999H28.3314V29.0543H30.1754Z" fill="#7C8184"/>
<path d="M31.9652 29.0543H34.7854V29.4339H32.3991V30.4101H34.1346V30.7898H32.3991V31.8203H34.7854V32.1999H31.9652V29.0543Z" fill="#7C8184"/>
<path d="M12.7116 70.2187L12.115 68.8628L11.5185 70.2187H12.7116ZM12.4947 68.0493L14.2302 71.8458H13.4709L13.037 70.8153H11.2473L10.8134 71.8458H9.99988L11.7354 68.0493H12.4947Z" fill="black"/>
<path d="M18.5691 70.8695C18.5691 70.1102 16.0743 71.0322 16.0743 69.7306C16.0743 69.134 16.5081 68.6459 17.5928 68.6459C18.0267 68.6459 18.2979 68.7001 18.6233 68.8086C18.8402 68.8628 19.1114 69.0255 19.1114 69.0255L18.8945 69.4594C18.8945 69.4594 18.2979 69.134 17.6471 69.134C17.0505 69.134 16.7251 69.2425 16.6708 69.5679C16.6166 70.3814 19.1657 69.2967 19.1657 70.8695C19.1657 71.5746 18.5148 71.9 17.5386 71.9C17.0505 71.9 16.6708 71.7915 16.5081 71.7373C16.2912 71.6288 16.02 71.5203 16.02 71.5203L16.2912 71.0322C16.7251 71.2492 17.0505 71.3576 17.6471 71.4119C18.2979 71.4119 18.5691 71.1407 18.5691 70.8695Z" fill="black"/>
<path d="M23.5587 70.8695C23.5587 70.1102 21.0639 71.0322 21.0639 69.7306C21.0639 69.134 21.4978 68.6459 22.5825 68.6459C23.0163 68.6459 23.2875 68.7001 23.6129 68.8086C23.8299 68.8628 24.101 69.0255 24.101 69.0255L23.8841 69.4594C23.8841 69.4594 23.2875 69.134 22.6367 69.134C22.0401 69.134 21.7147 69.2425 21.6605 69.5679C21.6062 70.3814 24.1553 69.2967 24.1553 70.8695C24.1553 71.5746 23.5045 71.9 22.5282 71.9C22.0401 71.9 21.6605 71.7915 21.4978 71.7373C21.2808 71.6288 21.0096 71.5203 21.0096 71.5203L21.2808 71.0322C21.7147 71.2492 22.0401 71.3576 22.6367 71.4119C23.2333 71.4119 23.5587 71.1407 23.5587 70.8695Z" fill="black"/>
<path d="M27.8433 71.9C26.8671 71.9 26.2705 71.6288 26.2705 70.7611V68.7001H26.8671V70.7611C26.8671 71.2492 27.1925 71.4119 27.8433 71.4119C28.4941 71.4119 28.8196 71.2492 28.8196 70.8153V68.7001H29.4161V70.7611C29.4161 71.6288 28.8196 71.9 27.8433 71.9Z" fill="black"/>
<path d="M32.3991 70.0018H33.7007C34.1346 70.0018 34.2431 69.839 34.2431 69.5679C34.2431 69.2967 34.0261 69.134 33.5922 69.134H32.3991V70.0018ZM34.1888 71.8457L33.3211 70.4899H32.3991V71.8457H31.8025V68.6459H33.4295C34.3515 68.6459 34.8939 68.9171 34.8939 69.6221C34.8939 70.1102 34.5142 70.4356 34.0261 70.4899L34.9481 71.8457H34.1888Z" fill="black"/>
<path d="M37.0632 68.6459H39.9377V69.1882H37.6598V69.9475H39.2326V70.4899H37.6598V71.3034H39.9919V71.8457H37.0632V68.6459Z" fill="black"/>
<path d="M43.6257 71.9C42.6494 71.9 42.0529 71.6288 42.0529 70.7611V68.7001H42.6494V70.7611C42.6494 71.2492 42.9749 71.4119 43.6257 71.4119C44.2765 71.4119 44.6019 71.2492 44.6019 70.8153V68.7001H45.2527V70.7611C45.2527 71.6288 44.6019 71.9 43.6257 71.9Z" fill="black"/>
<path d="M48.2357 70.0018H49.5374C49.9713 70.0018 50.134 69.839 50.134 69.5679C50.134 69.2967 49.917 69.134 49.4832 69.134H48.29V70.0018H48.2357ZM50.0255 71.8457L49.1577 70.5441H48.2357V71.8457H47.6392V68.6459H49.2662C50.1882 68.6459 50.7306 68.9171 50.7306 69.6221C50.7306 70.1102 50.3509 70.4356 49.8628 70.4899L50.7848 71.7915H50.0255V71.8457Z" fill="black"/>
<path d="M60.1132 71.2492C59.7336 71.5204 59.1912 71.9 58.215 71.9C57.0761 71.9543 55.9371 71.3035 55.9371 69.9476C55.9371 68.7002 56.9676 67.9951 58.2692 67.9951C59.1912 67.9951 60.0048 68.4832 60.0048 68.4832L59.6794 69.0256C59.137 68.8086 58.8116 68.6459 58.215 68.6459C57.4015 68.6459 56.6964 69.0256 56.6964 70.0018C56.6964 70.978 57.4557 71.4119 58.5947 71.3035C59.1912 71.2492 59.6251 70.8696 59.7878 70.7611L60.1132 71.2492Z" fill="black"/>
<path d="M62.4995 70.2187C62.4995 70.8696 63.0419 71.3577 63.8554 71.3577C64.6689 71.3577 65.2113 70.8696 65.2113 70.2187C65.2113 69.5679 64.6689 69.0798 63.8554 69.0798C63.0419 69.134 62.4995 69.5679 62.4995 70.2187ZM65.8079 70.2187C65.8079 71.1407 64.9944 71.8458 63.8554 71.8458C62.7165 71.8458 61.903 71.1407 61.903 70.2187C61.903 69.2967 62.7165 68.5917 63.8554 68.5917C64.9944 68.5917 65.8079 69.2967 65.8079 70.2187Z" fill="black"/>
<path d="M71.0144 68.6459V71.8457H70.4721L68.3569 69.4594V71.8457H67.8146V68.6459H68.3569L70.4721 70.8695V68.6459H71.0144Z" fill="black"/>
<path d="M75.6787 70.8695C75.6787 70.1102 73.1839 71.0322 73.1839 69.7306C73.1839 69.134 73.6178 68.6459 74.7025 68.6459C75.1363 68.6459 75.4075 68.7001 75.7329 68.8086C75.9499 68.8628 76.221 69.0255 76.221 69.0255L76.0041 69.4594C76.0041 69.4594 75.4075 69.134 74.7567 69.134C74.1601 69.134 73.8347 69.2425 73.7805 69.5679C73.7262 70.3814 76.2753 69.2967 76.2753 70.8695C76.2753 71.5746 75.6245 71.9 74.6482 71.9C74.1601 71.9 73.7805 71.7915 73.6178 71.7373C73.4008 71.6288 73.1296 71.5203 73.1296 71.5203L73.4008 71.0322C73.8347 71.2492 74.1601 71.3576 74.7567 71.4119C75.3533 71.4119 75.6787 71.1407 75.6787 70.8695Z" fill="black"/>
<path d="M78.3362 68.6459H81.2106V69.1882H78.9328V69.9475H80.5056V70.4899H78.9328V71.3034H81.2649V71.8457H78.3362V68.6459Z" fill="black"/>
<path d="M83.3258 68.6459H83.9766V71.8457C83.8682 71.8457 83.4885 71.8457 83.3258 71.8457V68.6459Z" fill="black"/>
<path d="M86.9053 68.6459V71.3034H89.0747V71.8457H86.3087V68.6459H86.9053Z" fill="black"/>
<path d="M48.2899 36.1048L57.6184 39.3047L58.3234 49.1755L67.8146 31.0067L48.2899 36.1048Z" fill="#EF7D00"/>
<path d="M66.2417 37.0268C69.0619 37.9488 71.7195 39.142 74.2685 40.5521C79.909 43.5893 84.9528 47.9281 89.2916 52.7008C84.7901 44.3486 76.8176 38.1115 67.4349 34.6947L66.2417 37.0268Z" fill="#0070BA"/>
<path d="M57.6183 32.2541C55.0151 31.8745 52.3575 31.7118 49.6458 31.7118C35.1108 31.8745 20.0334 39.142 12.7659 49.7179C20.7927 41.8538 31.9651 36.1591 43.6799 34.8574C45.4697 34.6405 47.3137 34.4778 49.2119 34.4778L57.6183 32.2541Z" fill="#0070BA"/>
</g>
<defs>
<clipPath id="clip0_4309_30">
<rect width="79.346" height="42.9" fill="white" transform="translate(10 29)"/>
</clipPath>
</defs>
</svg>
