<svg width="100" height="100" viewBox="0 0 100 100" fill="none" xmlns="http://www.w3.org/2000/svg">
<g clip-path="url(#clip0_4289_51510)">
<path d="M49.5997 61.7643C50.2411 61.7643 50.7221 62.2453 50.7221 62.8065H48.317C48.317 62.1652 48.798 61.7643 49.5997 61.7643ZM49.5997 66.2538C50.4816 66.2538 51.2833 66.0133 52.0048 65.2918L51.1229 64.4099C50.7221 64.8108 50.3212 64.9711 49.6799 64.9711C48.8782 64.9711 48.317 64.5703 48.2368 63.9289H52.2453C52.2453 63.6884 52.2453 63.3677 52.2453 63.3677C52.2453 61.6841 51.1229 60.4816 49.5195 60.4816C47.7558 60.4816 46.4731 61.6841 46.4731 63.3677C46.6334 65.1314 47.7558 66.2538 49.5997 66.2538ZM80.2246 60.5618H81.828V61.2833C82.0686 60.8023 82.5496 60.4816 83.2711 60.4816C83.9926 60.4816 84.5538 60.8023 84.7943 61.3635C85.115 60.7221 85.8365 60.4816 86.6382 60.4816C87.921 60.4816 88.5623 61.3635 88.5623 62.8065V66.1737H86.9589V62.9669C86.9589 62.3255 86.6382 61.9246 86.1572 61.9246C85.596 61.9246 85.2754 62.4057 85.2754 63.047V66.1737H83.672V62.9669C83.672 62.3255 83.3513 61.9246 82.8703 61.9246C82.3091 61.9246 81.9884 62.4057 81.9884 63.047V66.1737H80.385V60.5618H80.2246ZM77.2584 60.5618H78.8618V66.0935H77.2584V60.5618ZM77.1782 58.8782C77.1782 58.317 77.579 57.9161 78.0601 57.9161C78.6213 57.9161 79.0221 58.317 79.0221 58.8782C79.0221 59.3592 78.6213 59.7601 78.0601 59.7601C77.579 59.8402 77.1782 59.4394 77.1782 58.8782ZM73.9714 60.4014C74.7731 60.4014 75.5748 60.6419 76.2963 61.4436L75.2541 62.4858C74.9334 62.1652 74.5326 61.9246 73.9714 61.9246C73.1697 61.9246 72.5283 62.566 72.5283 63.3677C72.5283 64.1694 73.1697 64.8108 73.9714 64.8108C74.5326 64.8108 74.8533 64.5703 75.2541 64.2496L76.2963 65.2918C75.5748 66.0935 74.7731 66.334 73.9714 66.334C72.1275 66.334 70.9249 65.1314 70.9249 63.3677C70.9249 61.6841 72.2878 60.4014 73.9714 60.4014ZM68.2793 58.2368H69.9629V66.0935H68.2793V58.2368ZM64.1907 64.8108C64.9924 64.8108 65.6337 64.1694 65.6337 63.3677C65.6337 62.566 64.9924 61.9246 64.1907 61.9246C63.389 61.9246 62.7476 62.566 62.7476 63.3677C62.7476 64.1694 63.389 64.8108 64.1907 64.8108ZM64.1907 60.4014C65.9544 60.4014 67.3173 61.6841 67.3173 63.3677C67.3173 65.0513 65.9544 66.334 64.1907 66.334C62.4269 66.334 61.1442 65.0513 61.1442 63.3677C61.1442 61.6841 62.4269 60.4014 64.1907 60.4014ZM53.6884 58.4773H55.372V61.4436H58.4184V58.4773H60.102V66.1737H58.4184V62.9669H55.372V66.1737H53.6884V58.4773ZM42.6249 64.7306C43.4266 64.7306 44.068 64.1694 44.068 63.3677C44.068 62.566 43.4266 62.0048 42.6249 62.0048C41.8232 62.0048 41.1819 62.566 41.1819 63.3677C41.1819 64.1694 41.8232 64.7306 42.6249 64.7306ZM42.3043 60.4816C43.1059 60.4816 43.8275 60.8023 43.9878 61.2833V60.5618H45.5912V65.2116C45.5912 66.334 45.4309 67.4564 44.549 68.0977C44.068 68.4986 43.2663 68.7391 42.5448 68.7391C41.5025 68.7391 40.6207 68.4986 39.819 68.0176L40.5405 66.815C41.0215 67.1357 41.5827 67.3762 42.2241 67.3762C42.7051 67.3762 43.1059 67.296 43.3465 67.0555C43.8275 66.7348 43.9076 66.0935 43.9076 65.6926V65.5323C43.6671 65.9331 43.0258 66.1737 42.2241 66.1737C40.6207 66.1737 39.4983 64.9711 39.4983 63.3677C39.5785 61.7643 40.7009 60.4816 42.3043 60.4816ZM35.57 60.5618H37.1734V61.2833C37.4139 60.7221 37.8949 60.4014 38.6966 60.4014C38.8569 60.4014 39.0173 60.4014 39.0975 60.4816V62.0048C38.9371 62.0048 38.7768 62.0048 38.5363 62.0048C37.5742 62.0048 37.1734 62.566 37.1734 63.4479V66.1737H35.57V60.5618ZM31.321 64.7306C32.1227 64.7306 32.764 64.1694 32.764 63.3677C32.764 62.566 32.1227 62.0048 31.321 62.0048C30.5193 62.0048 29.8779 62.566 29.8779 63.3677C29.8779 64.1694 30.5193 64.7306 31.321 64.7306ZM31.0003 60.4816C31.8822 60.4816 32.5235 60.8023 32.6839 61.2833V60.5618H34.2873V66.0935H32.6839V65.372C32.5235 65.853 31.8822 66.1737 31.0003 66.1737C29.3969 66.1737 28.2745 64.9711 28.2745 63.2875C28.2745 61.7643 29.3969 60.4816 31.0003 60.4816ZM24.9875 61.9246H24.1858V60.5618H24.9875V60.2411C24.9875 59.3592 25.228 58.8782 25.6289 58.5575C26.1099 58.1567 26.6711 58.1567 27.1521 58.1567C27.3926 58.1567 27.7133 58.1567 27.8737 58.2368V59.5195C27.7133 59.5195 27.4728 59.5195 27.3125 59.5195C26.8314 59.5195 26.5909 59.6799 26.5909 60.1609V60.6419H27.7133V62.0048H26.5909V66.1737H24.9875V61.9246ZM20.2575 64.7306C21.0592 64.7306 21.7006 64.1694 21.7006 63.3677C21.7006 62.566 21.0592 62.0048 20.2575 62.0048C19.4558 62.0048 18.8144 62.566 18.8144 63.3677C18.8946 64.1694 19.4558 64.7306 20.2575 64.7306ZM19.9368 60.4816C20.7385 60.4816 21.4601 60.8023 21.6204 61.2833V60.5618H23.2238V66.0935H21.6204V65.372C21.4601 65.853 20.8187 66.1737 19.9368 66.1737C18.3334 66.1737 17.211 64.9711 17.211 63.2875C17.211 61.7643 18.4136 60.4816 19.9368 60.4816ZM12 58.4773H13.6836V64.6504H16.73V66.1737H12V58.4773Z" fill="#614E48"/>
<path d="M56.8952 22V32.7428H45.9921V40.5193H56.8952V52.7051H65.6338V22H56.8952Z" fill="#83776F"/>
<path d="M43.7473 44.9286V22H34.9286V52.7051H52.4056V44.9286H43.7473Z" fill="#614E48"/>
<path d="M65.1528 72.4269C66.0346 72.4269 66.8363 72.6674 67.5579 73.4691L66.5157 74.5915C66.1148 74.1906 65.7941 74.0303 65.1528 74.0303C64.3511 74.0303 63.6295 74.6717 63.6295 75.5535C63.6295 76.4354 64.2709 77.0768 65.1528 77.0768C65.714 77.0768 66.1148 76.8363 66.5157 76.5156L67.638 77.5578C66.9165 78.3595 66.0346 78.6802 65.2329 78.6802C63.3089 78.6802 62.0261 77.3974 62.0261 75.6337C61.946 73.7898 63.389 72.4269 65.1528 72.4269Z" fill="#83776F"/>
<path d="M58.178 72.4269C56.3341 72.4269 54.9712 73.7898 54.9712 75.4734C54.9712 77.2371 56.3341 78.5198 58.178 78.5198C60.0219 78.5198 61.3848 77.1569 61.3848 75.4734C61.3848 73.7898 60.0219 72.4269 58.178 72.4269ZM58.178 77.0768C57.2961 77.0768 56.6548 76.4354 56.6548 75.5535C56.6548 74.6717 57.2961 74.0303 58.178 74.0303C59.0599 74.0303 59.7012 74.6717 59.7012 75.5535C59.7012 76.4354 59.0599 77.0768 58.178 77.0768Z" fill="#83776F"/>
<path d="M50.642 72.6674H52.3255V73.4691C52.566 72.9079 53.1272 72.5872 53.9289 72.5872C54.0893 72.5872 54.2496 72.5873 54.41 72.6674V74.2708C54.2496 74.2708 54.0091 74.1906 53.8488 74.1906C52.8867 74.1906 52.4057 74.7518 52.4057 75.7139V78.6H50.7221V72.6674H50.642Z" fill="#83776F"/>
<path d="M47.6757 72.6674V73.4691C47.5153 72.9881 46.7938 72.5872 45.9119 72.5872C44.2284 72.5872 43.0258 73.87 43.0258 75.6337C43.0258 77.3975 44.2284 78.6 45.9119 78.6C46.7938 78.6 47.5153 78.1991 47.6757 77.7181V78.5198H49.3592V72.6674H47.6757ZM46.3128 76.9966C45.5111 76.9966 44.8697 76.3552 44.8697 75.5535C44.8697 74.7518 45.5111 74.1105 46.3128 74.1105C47.1947 74.1105 47.836 74.7518 47.836 75.5535C47.836 76.3552 47.1145 76.9966 46.3128 76.9966Z" fill="#83776F"/>
<path d="M41.1017 70.1822H40.2199H39.4182L37.8949 74.9923C37.6544 75.8742 37.4941 76.4354 37.4941 76.7561C37.4941 76.5958 37.4139 76.3552 37.3338 75.9544C37.2536 75.5535 37.1734 75.2329 37.0932 74.9923L35.57 70.1822H34.8485H33.8864H33.1649V78.4397H34.9287V73.0683L36.6924 78.2793H38.5363L40.3802 72.9079V78.4397H42.144V70.1822H41.1017Z" fill="#83776F"/>
</g>
<defs>
<clipPath id="clip0_4289_51510">
<rect width="76.5623" height="56.6" fill="white" transform="translate(12 22)"/>
</clipPath>
</defs>
</svg>
