<svg width="100" height="100" viewBox="0 0 100 100" fill="none" xmlns="http://www.w3.org/2000/svg">
<g clip-path="url(#clip0_4289_51235)">
<path d="M11.8846 56.929C11.3402 56.929 11 56.5888 11 56.1125C11 55.6361 11.3402 55.2959 11.8846 55.2959C12.2248 55.2959 12.463 55.398 12.5991 55.6021L12.3269 55.7382C12.2248 55.6021 12.1228 55.5341 11.8846 55.5341C11.5104 55.5341 11.3062 55.7722 11.3062 56.1125C11.3062 56.4527 11.5104 56.6909 11.8846 56.6909C12.0887 56.6909 12.2248 56.6228 12.3609 56.4867L12.6331 56.6228C12.463 56.8269 12.2248 56.929 11.8846 56.929Z" fill="black"/>
<path d="M13.6538 56.929C13.1094 56.929 12.7692 56.5888 12.7692 56.1125C12.7692 55.6361 13.1094 55.2959 13.6538 55.2959C14.1982 55.2959 14.5384 55.6361 14.5384 56.1125C14.5384 56.5888 14.1982 56.929 13.6538 56.929ZM13.6538 55.5341C13.2796 55.5341 13.0754 55.7722 13.0754 56.1125C13.0754 56.4527 13.2796 56.6909 13.6538 56.6909C14.0281 56.6909 14.2322 56.4527 14.2322 56.1125C14.2322 55.7722 14.0281 55.5341 13.6538 55.5341Z" fill="black"/>
<path d="M16.1716 56.8949L15.321 55.9082C15.287 55.8402 15.1849 55.7381 15.1509 55.7041C15.1509 55.7721 15.1509 55.9763 15.1509 56.0783V56.8949H14.8447V55.3298H15.1509L15.9674 56.2825C16.0355 56.3505 16.1035 56.4526 16.1375 56.5207C16.1375 56.4526 16.1375 56.2485 16.1375 56.1464V55.3298H16.4437V56.8949H16.1716Z" fill="black"/>
<path d="M17.4985 56.929C17.1923 56.929 16.9201 56.8269 16.75 56.6568L16.9881 56.4866C17.1242 56.5887 17.3284 56.6568 17.5325 56.6568C17.8387 56.6568 17.9748 56.5887 17.9748 56.4186C17.9748 56.2825 17.8387 56.2485 17.4985 56.1464C17.0562 56.0443 16.852 55.9763 16.852 55.6701C16.852 55.3979 17.1582 55.2278 17.5325 55.2278C17.8047 55.2278 18.0428 55.2958 18.213 55.4319L17.9748 55.602C17.8387 55.5 17.7026 55.4659 17.4985 55.4659C17.2603 55.4659 17.1582 55.568 17.1582 55.6701C17.1582 55.7722 17.2603 55.8402 17.6346 55.9083C18.0428 56.0103 18.315 56.1124 18.315 56.3846C18.281 56.7248 18.0428 56.929 17.4985 56.929Z" fill="black"/>
<path d="M18.6212 56.8949V55.3298H19.9822V55.568H18.9274V55.9423H19.5399V56.1804H18.9274V56.6908H20.0162V56.8949H18.6212Z" fill="black"/>
<path d="M20.6286 55.3298H20.3224V56.8949H20.6286V55.3298Z" fill="black"/>
<path d="M21.0709 56.8949V55.3298H21.3771V56.6567H22.4319V56.8949H21.0709Z" fill="black"/>
<path d="M24.031 55.9763H23.2824V56.2145H24.031V55.9763Z" fill="black"/>
<path d="M25.3238 55.3298H25.0176V56.8949H25.3238V55.3298Z" fill="black"/>
<path d="M27.059 56.8949L26.2425 55.9082C26.2084 55.8402 26.1064 55.7381 26.0724 55.7041C26.0724 55.7721 26.0724 55.9763 26.0724 56.0783V56.8949H25.7661V55.3298H26.0724L26.8889 56.2825C26.957 56.3505 27.025 56.4526 27.059 56.5207C27.059 56.4526 27.059 56.2485 27.059 56.1464V55.3298H27.3652V56.8949H27.059Z" fill="black"/>
<path d="M28.0797 55.568V55.9763H28.6921V56.2144H28.0797V56.8949H27.7735V55.3298H29.1344V55.568H28.0797Z" fill="black"/>
<path d="M30.5294 56.2485L30.9717 56.8949H30.5975L30.1892 56.2825H29.7129V56.8949H29.3726V55.3298H30.2913C30.6655 55.3298 30.9717 55.4659 30.9717 55.8062C30.9717 56.0443 30.8016 56.2144 30.5294 56.2485ZM30.3253 55.534H29.7129V56.0443H30.3253C30.5294 56.0443 30.6995 55.9763 30.6995 55.8062C30.6655 55.636 30.5294 55.534 30.3253 55.534Z" fill="black"/>
<path d="M32.6729 56.8949L32.5028 56.5207H31.6522L31.4821 56.8949H31.1418L31.8904 55.3298H32.2306L33.0131 56.8949H32.6729ZM32.2306 55.9423C32.1625 55.8402 32.0945 55.636 32.0605 55.568C32.0265 55.636 31.9584 55.8062 31.8904 55.9423L31.7543 56.3165H32.4007L32.2306 55.9423Z" fill="black"/>
<path d="M33.8977 56.929C33.5915 56.929 33.3193 56.8269 33.1492 56.6568L33.3874 56.4866C33.5235 56.5887 33.7276 56.6568 33.9318 56.6568C34.238 56.6568 34.3741 56.5887 34.3741 56.4186C34.3741 56.2825 34.238 56.2485 33.8977 56.1464C33.4554 56.0443 33.2513 55.9763 33.2513 55.6701C33.2513 55.3979 33.5575 55.2278 33.9318 55.2278C34.2039 55.2278 34.4421 55.2958 34.6122 55.4319L34.3741 55.602C34.238 55.5 34.1019 55.4659 33.8977 55.4659C33.6596 55.4659 33.5575 55.568 33.5575 55.6701C33.5575 55.7722 33.6596 55.8402 34.0338 55.9083C34.4421 56.0103 34.7143 56.1124 34.7143 56.3846C34.6803 56.7248 34.4421 56.929 33.8977 56.929Z" fill="black"/>
<path d="M35.735 55.568V56.8949H35.3948V55.568H34.7823V55.3298H36.3474V55.568H35.735Z" fill="black"/>
<path d="M37.7424 56.2485L38.1847 56.8949H37.8104L37.4021 56.2825H36.9258V56.8949H36.6196V55.3298H37.5382C37.9125 55.3298 38.2187 55.4659 38.2187 55.8062C38.2187 56.0443 38.0486 56.2144 37.7424 56.2485ZM37.5382 55.534H36.9258V56.0443H37.5382C37.7424 56.0443 37.9125 55.9763 37.9125 55.8062C37.9125 55.636 37.7424 55.534 37.5382 55.534Z" fill="black"/>
<path d="M39.3074 56.9289C38.7971 56.9289 38.5249 56.6908 38.5249 56.2485V55.3298H38.8311V56.2485C38.8311 56.5547 39.0012 56.6908 39.3074 56.6908C39.6477 56.6908 39.7838 56.5207 39.7838 56.2485V55.3298H40.09V56.2485C40.124 56.6908 39.8178 56.9289 39.3074 56.9289Z" fill="black"/>
<path d="M41.3148 56.929C40.7705 56.929 40.4302 56.5888 40.4302 56.1125C40.4302 55.6361 40.7705 55.2959 41.3148 55.2959C41.6551 55.2959 41.8932 55.398 42.0293 55.6021L41.7571 55.7382C41.6551 55.6021 41.553 55.5341 41.3148 55.5341C40.9406 55.5341 40.7364 55.7722 40.7364 56.1125C40.7364 56.4527 40.9406 56.6909 41.3148 56.6909C41.519 56.6909 41.6551 56.6228 41.7912 56.4867L42.0633 56.6228C41.8932 56.8269 41.621 56.929 41.3148 56.929Z" fill="black"/>
<path d="M43.084 55.568V56.8949H42.7778V55.568H42.1654V55.3298H43.7305V55.568H43.084Z" fill="black"/>
<path d="M44.7512 56.9289C44.2408 56.9289 43.9687 56.6908 43.9687 56.2485V55.3298H44.2749V56.2485C44.2749 56.5547 44.445 56.6908 44.7512 56.6908C45.0914 56.6908 45.2275 56.5207 45.2275 56.2485V55.3298H45.5337V56.2485C45.5678 56.6908 45.2956 56.9289 44.7512 56.9289Z" fill="black"/>
<path d="M47.0988 56.2485L47.5411 56.8949H47.1668L46.7585 56.2825H46.2822V56.8949H45.976V55.3298H46.8946C47.2689 55.3298 47.5751 55.4659 47.5751 55.8062C47.5751 56.0443 47.405 56.2144 47.0988 56.2485ZM46.8946 55.534H46.2822V56.0443H46.8946C47.0988 56.0443 47.2689 55.9763 47.2689 55.8062C47.2349 55.636 47.0988 55.534 46.8946 55.534Z" fill="black"/>
<path d="M47.9154 56.8949V55.3298H49.2763V55.568H48.2216V55.9423H48.834V56.1804H48.2216V56.6908H49.3103V56.8949H47.9154Z" fill="black"/>
<path d="M50.2289 56.929C49.9227 56.929 49.6505 56.8269 49.4804 56.6568L49.7186 56.4866C49.8547 56.5887 50.0588 56.6568 50.263 56.6568C50.5692 56.6568 50.7053 56.5887 50.7053 56.4186C50.7053 56.2825 50.5692 56.2485 50.2289 56.1464C49.7866 56.0443 49.5825 55.9763 49.5825 55.6701C49.5825 55.3979 49.8887 55.2278 50.263 55.2278C50.5351 55.2278 50.7733 55.2958 50.9434 55.4319L50.7053 55.602C50.5692 55.5 50.4331 55.4659 50.2289 55.4659C49.9908 55.4659 49.8887 55.568 49.8887 55.6701C49.8887 55.7722 49.9908 55.8402 50.365 55.9083C50.7733 56.0103 51.0455 56.1124 51.0455 56.3846C51.0115 56.7248 50.7393 56.929 50.2289 56.929Z" fill="black"/>
<path d="M52.6446 55.9763H51.8961V56.2145H52.6446V55.9763Z" fill="black"/>
<path d="M53.9375 55.3298H53.6313V56.8949H53.9375V55.3298Z" fill="black"/>
<path d="M55.6727 56.8949L54.8221 55.9082C54.7881 55.8402 54.686 55.7381 54.652 55.7041C54.652 55.7721 54.652 55.9763 54.652 56.0783V56.8949H54.3458V55.3298H54.652L55.4685 56.2825C55.5366 56.3505 55.6046 56.4526 55.6387 56.5207C55.6387 56.4526 55.6387 56.2485 55.6387 56.1464V55.3298H55.9449V56.8949H55.6727Z" fill="black"/>
<path d="M57.1697 55.568V56.8949H56.8635V55.568H56.2511V55.3298H57.7821V55.568H57.1697Z" fill="black"/>
<path d="M58.0543 56.8949V55.3298H59.4153V55.568H58.3946V55.9423H58.973V56.1804H58.3946V56.6908H59.4833V56.8949H58.0543Z" fill="black"/>
<path d="M60.47 56.929C59.9256 56.929 59.5854 56.5888 59.5854 56.1125C59.5854 55.6361 59.9256 55.2959 60.47 55.2959C60.8102 55.2959 61.0484 55.398 61.1845 55.6021L60.9123 55.7382C60.8102 55.6021 60.6741 55.5341 60.47 55.5341C60.0957 55.5341 59.8916 55.7722 59.8916 56.1125C59.8916 56.4527 60.0957 56.6909 60.47 56.6909C60.8102 56.6909 60.9463 56.5207 60.9463 56.3506H60.6061V56.1125H61.2865V56.2826C61.2525 56.6909 60.9463 56.929 60.47 56.929Z" fill="black"/>
<path d="M62.7155 56.2485L63.1579 56.8949H62.7836L62.3753 56.2825H61.899V56.8949H61.5928V55.3298H62.5114C62.8857 55.3298 63.1919 55.4659 63.1919 55.8062C63.1919 56.0443 62.9877 56.2144 62.7155 56.2485ZM62.5114 55.534H61.899V56.0443H62.5114C62.7155 56.0443 62.8857 55.9763 62.8857 55.8062C62.8516 55.636 62.7155 55.534 62.5114 55.534Z" fill="black"/>
<path d="M64.859 56.8949L64.6889 56.5207H63.8383L63.6682 56.8949H63.3279L64.0765 55.3298H64.4167L65.1992 56.8949H64.859ZM64.4167 55.9423C64.3486 55.8402 64.2806 55.636 64.2466 55.568C64.2125 55.636 64.1445 55.8062 64.0765 55.9423L63.9063 56.3165H64.5528L64.4167 55.9423Z" fill="black"/>
<path d="M66.0158 55.568V56.8949H65.7096V55.568H65.0972V55.3298H66.6282V55.568H66.0158Z" fill="black"/>
<path d="M67.2066 55.3298H66.9004V56.8949H67.2066V55.3298Z" fill="black"/>
<path d="M68.4315 56.929C67.8871 56.929 67.5468 56.5888 67.5468 56.1125C67.5468 55.6361 67.8871 55.2959 68.4315 55.2959C68.9758 55.2959 69.3161 55.6361 69.3161 56.1125C69.3501 56.5888 69.0099 56.929 68.4315 56.929ZM68.4315 55.5341C68.0572 55.5341 67.8531 55.7722 67.8531 56.1125C67.8531 56.4527 68.0572 56.6909 68.4315 56.6909C68.8057 56.6909 69.0099 56.4527 69.0099 56.1125C69.0099 55.7722 68.8057 55.5341 68.4315 55.5341Z" fill="black"/>
<path d="M70.9492 56.8949L70.0986 55.9082C70.0646 55.8402 69.9625 55.7381 69.9285 55.7041C69.9285 55.7721 69.9285 55.9763 69.9285 56.0783V56.8949H69.6223V55.3298H69.9285L70.745 56.2825C70.8131 56.3505 70.8811 56.4526 70.9151 56.5207C70.9151 56.4526 70.9151 56.2485 70.9151 56.1464V55.3298H71.2214V56.8949H70.9492Z" fill="black"/>
<path d="M72.8885 56.8949H72.3101V55.3298H72.8885C73.4669 55.3298 73.9092 55.568 73.9092 56.1124C73.9432 56.6567 73.4669 56.8949 72.8885 56.8949ZM72.8885 55.568H72.6163V56.6908H72.8885C73.3989 56.6908 73.603 56.4526 73.603 56.1464C73.603 55.7721 73.3989 55.568 72.8885 55.568Z" fill="black"/>
<path d="M74.2154 56.8949V55.3298H75.5764V55.568H74.5557V55.9423H75.1681V56.1804H74.5557V56.6908H75.6444V56.8949H74.2154Z" fill="black"/>
<path d="M77.2435 56.929C76.9373 56.929 76.6651 56.8269 76.495 56.6568L76.7332 56.4866C76.8693 56.5887 77.0734 56.6568 77.2775 56.6568C77.5837 56.6568 77.7198 56.5887 77.7198 56.4186C77.7198 56.2825 77.5837 56.2485 77.2435 56.1464C76.8012 56.0443 76.5971 55.9763 76.5971 55.6701C76.5971 55.3979 76.9033 55.2278 77.2775 55.2278C77.5497 55.2278 77.7879 55.2958 77.958 55.4319L77.7198 55.602C77.5837 55.5 77.4476 55.4659 77.2435 55.4659C77.0053 55.4659 76.9033 55.568 76.9033 55.6701C76.9033 55.7722 77.0053 55.8402 77.3796 55.9083C77.7879 56.0103 78.0601 56.1124 78.0601 56.3846C78.026 56.7248 77.7879 56.929 77.2435 56.929Z" fill="black"/>
<path d="M78.3663 56.8949V55.3298H79.7272V55.568H78.6725V55.9423H79.2849V56.1804H78.6725V56.6908H79.7612V56.8949H78.3663Z" fill="black"/>
<path d="M81.2242 56.2485L81.6665 56.8949H81.2923L80.884 56.2825H80.4077V56.8949H80.0674V55.3298H80.9861C81.3603 55.3298 81.6665 55.4659 81.6665 55.8062C81.6665 56.0443 81.4964 56.2144 81.2242 56.2485ZM80.9861 55.534H80.3737V56.0443H80.9861C81.1902 56.0443 81.3603 55.9763 81.3603 55.8062C81.3603 55.636 81.2242 55.534 80.9861 55.534Z" fill="black"/>
<path d="M82.8574 56.895H82.5171L81.7686 55.3299H82.1088L82.5512 56.3506C82.5852 56.4527 82.6532 56.5888 82.6532 56.6228C82.6872 56.5548 82.7213 56.4187 82.7553 56.3166L83.1976 55.2959H83.5378L82.8574 56.895Z" fill="black"/>
<path d="M84.1843 55.3298H83.8781V56.8949H84.1843V55.3298Z" fill="black"/>
<path d="M85.4091 56.929C84.8647 56.929 84.5245 56.5888 84.5245 56.1125C84.5245 55.6361 84.8647 55.2959 85.4091 55.2959C85.7493 55.2959 85.9875 55.398 86.1236 55.6021L85.8514 55.7382C85.7493 55.6021 85.6473 55.5341 85.4091 55.5341C85.0349 55.5341 84.8307 55.7722 84.8307 56.1125C84.8307 56.4527 85.0349 56.6909 85.4091 56.6909C85.6133 56.6909 85.7493 56.6228 85.8854 56.4867L86.1576 56.6228C85.9875 56.8269 85.7153 56.929 85.4091 56.929Z" fill="black"/>
<path d="M86.4298 56.8949V55.3298H87.7907V55.568H86.77V55.9423H87.3825V56.1804H86.77V56.6908H87.8588V56.8949H86.4298Z" fill="black"/>
<path d="M88.7434 56.929C88.4372 56.929 88.165 56.8269 87.9949 56.6568L88.2331 56.4866C88.3692 56.5887 88.5733 56.6568 88.7774 56.6568C89.0837 56.6568 89.2197 56.5887 89.2197 56.4186C89.2197 56.2825 89.0837 56.2485 88.7434 56.1464C88.3011 56.0443 88.097 55.9763 88.097 55.6701C88.097 55.3979 88.4032 55.2278 88.7774 55.2278C89.0496 55.2278 89.2878 55.2958 89.4579 55.4319L89.2197 55.602C89.0836 55.5 88.9476 55.4659 88.7434 55.4659C88.5053 55.4659 88.4032 55.568 88.4032 55.6701C88.4032 55.7722 88.5053 55.8402 88.8795 55.9083C89.2878 56.0103 89.56 56.1124 89.56 56.3846C89.526 56.7248 89.2878 56.929 88.7434 56.929Z" fill="black"/>
<path d="M24.2691 44.1361H21.7854C21.7854 44.1361 18.5872 48.9674 17.6346 50.3964C17.3283 48.7973 16.4778 44.1361 16.4778 44.1361H13.6538L11.2382 53.6627H13.5177C13.5177 53.6627 14.4023 50.1242 14.9467 47.9807C15.321 50.1242 15.9674 53.6627 15.9674 53.6627H17.9408C17.9408 53.6627 20.1523 50.3284 21.5813 48.1849C21.0709 50.3624 20.2884 53.6627 20.2884 53.6627H22.602L24.8475 44.1361H24.2691Z" fill="#E01B15"/>
<path d="M27.7735 44.1361H26.0383L23.7588 53.6627H26.1064L28.3519 44.1361H27.7735Z" fill="#E01B15"/>
<path d="M32.9791 51.7914C32.1285 51.7914 30.1892 51.5532 30.1892 49.4778C30.1892 47.7426 31.38 46.0074 34.0338 46.0074C34.5782 46.0074 35.1226 46.1094 35.701 46.3476L36.1773 46.5177L36.8918 44.5784L36.4495 44.4083C35.701 44.1361 34.8504 44 34.0338 44C29.4747 44 27.8416 47.2322 27.8416 49.4097C27.8416 52.1656 29.6788 53.7987 32.775 53.7987C33.4214 53.7987 34.0678 53.6967 34.6462 53.5606L34.9184 53.4925L35.2587 51.281L34.5101 51.5532C34.0678 51.6893 33.5235 51.7914 32.9791 51.7914Z" fill="#E01B15"/>
<path d="M44.1388 46.6879C44.1388 44.1361 41.4169 44.1361 40.124 44.1361H38.2527H37.8785L35.6329 53.6627H37.9465C37.9465 53.6627 38.695 50.4304 38.8311 49.852H39.6817C40.124 49.852 40.2261 49.852 40.5323 51.0769L41.1787 53.6627H43.5944L42.9139 51.247L42.8119 50.9068C42.6758 50.3964 42.5056 49.75 42.1994 49.2736C43.3562 48.8313 44.1388 47.8106 44.1388 46.6879ZM39.8178 47.8447H39.3074C39.4435 47.2663 39.6137 46.5518 39.7157 46.1775H40.6344C41.7911 46.1775 41.7911 46.5518 41.7911 46.892C41.7911 47.8106 40.0219 47.8447 39.8178 47.8447Z" fill="#E01B15"/>
<path d="M50.0588 44C46.3843 44 44.2068 46.892 44.2068 49.7159C44.2068 52.3697 45.8059 53.8328 48.6639 53.8328C52.4064 53.8328 54.3798 50.8727 54.3798 47.9807C54.3798 45.497 52.7126 44 50.0588 44ZM48.7319 51.7914C47.337 51.7914 46.5884 51.0769 46.5884 49.7499C46.5884 47.9127 47.8813 46.0074 50.0248 46.0074C51.3517 46.0074 52.0322 46.6878 52.0322 48.1168C51.9982 49.6479 50.8414 51.7914 48.7319 51.7914Z" fill="#E01B15"/>
<path d="M63.9063 48.0828C63.9063 45.6331 61.933 44.1361 58.6327 44.1361H56.5233H56.149L53.9035 53.6627H57.3398C61.3886 53.6627 63.9063 51.5192 63.9063 48.0828ZM57.612 51.6553H56.7614C56.9656 50.7707 57.9182 46.7219 58.0543 46.1775H58.4966C61.1845 46.1775 61.5587 47.1642 61.5587 48.2189C61.5247 50.3284 60.0277 51.6553 57.612 51.6553Z" fill="#E01B15"/>
<path d="M70.5749 44.1361H68.9758L62.1031 53.6627H64.7569C64.7569 53.6627 66.0498 51.8254 66.288 51.4852H70.3708C70.4729 51.9955 70.8811 53.6627 70.8811 53.6627H73.2628L70.9152 44.1361H70.5749ZM69.9965 49.5458H67.683C68.1933 48.7973 68.8738 47.8787 69.4522 47.0621C69.6563 48.0148 69.8604 48.9674 69.9965 49.5458Z" fill="#E01B15"/>
<path d="M81.9387 46.1435L82.4151 44.1361H81.8367H74.1474L73.6711 46.1435H76.6311C76.3929 47.1302 74.8278 53.6627 74.8278 53.6627H77.1755C77.1755 53.6627 78.8086 46.7899 78.9787 46.1435H81.9387Z" fill="#E01B15"/>
<path d="M88.9476 51.4171L87.1784 44.1361H86.8041H85.205L78.3323 53.6627H80.9861C80.9861 53.6627 82.279 51.8254 82.5172 51.4852H86.6C86.668 51.7914 86.8381 52.5399 86.9742 53.0843L88.9476 51.4171ZM86.1917 49.5458H83.8781C84.3884 48.7973 85.0689 47.8787 85.6473 47.0621C85.8514 48.0148 86.0556 48.9674 86.1917 49.5458Z" fill="#E01B15"/>
</g>
<defs>
<clipPath id="clip0_4289_51235">
<rect width="78.5259" height="12.9289" fill="white" transform="translate(11 44)"/>
</clipPath>
</defs>
</svg>
