<svg width="100" height="100" viewBox="0 0 100 100" fill="none" xmlns="http://www.w3.org/2000/svg">
<path d="M79.6618 53.0404L70.772 62.0835L72.458 63.7695C74.144 65.4555 76.4431 66.5284 79.0487 66.5284C81.5011 66.5284 83.8002 65.6088 85.4862 63.7695C87.1722 62.0835 88.2451 59.6312 88.2451 57.1788C88.2451 55.4928 87.7853 53.9601 87.0189 52.5806C84.8731 51.0479 81.6544 51.2012 79.6618 53.0404Z" fill="#839DB1"/>
<path d="M81.1945 46.6029L69.2392 34.4944C67.2467 32.5019 63.7214 32.5019 61.7289 34.4944L45.482 50.7413C41.9567 54.4199 41.9567 60.2442 45.482 63.7695C45.9418 64.2293 46.4016 64.5358 46.8614 64.9957C48.3942 66.0686 50.0802 66.5284 51.9194 66.5284C54.3718 66.5284 56.6709 65.6088 58.3569 63.7695L74.4505 47.8291C75.83 46.2964 78.4356 46.1431 81.1945 46.6029Z" fill="#839DB1"/>
<path d="M49.7736 46.6029L37.8184 34.4944C35.8258 32.5019 32.3005 32.5019 30.308 34.4944L14.0611 50.7413C10.5358 54.4199 10.5358 60.2442 14.0611 63.7695C14.5209 64.2293 14.9807 64.5358 15.4406 64.9957C16.9733 66.0686 18.6593 66.5284 20.4985 66.5284C22.9509 66.5284 25.25 65.6088 26.936 63.7695L43.0296 47.8291C44.4091 46.2964 47.0147 46.1431 49.7736 46.6029Z" fill="#839DB1"/>
</svg>
